<?xml version="1.0" standalone="no"?>
<!DOCTYPE svg PUBLIC "-//W3C//DTD SVG 20010904//EN"
 "http://www.w3.org/TR/2001/REC-SVG-20010904/DTD/svg10.dtd">
<svg version="1.0" xmlns="http://www.w3.org/2000/svg"
 width="500.000000pt" height="500.000000pt" viewBox="0 0 500.000000 500.000000"
 preserveAspectRatio="xMidYMid meet">
<metadata>
Created by potrace 1.11, written by Peter Selinger 2001-2013
</metadata>
<g transform="translate(0.000000,500.000000) scale(0.100000,-0.100000)"
fill="#000000" stroke="none">
<path d="M1357 3904 c-3 -3 -21 -8 -39 -10 -54 -6 -133 -20 -133 -24 0 -3 -65
-18 -83 -19 -7 -1 -11 -5 -8 -10 3 -4 -6 -7 -19 -5 -14 1 -25 -2 -25 -7 0 -6
-4 -8 -9 -4 -5 3 -13 0 -16 -6 -4 -5 -13 -8 -21 -5 -8 3 -14 2 -14 -2 0 -9
-60 -36 -77 -35 -7 1 -13 -3 -13 -9 0 -5 -5 -6 -12 -2 -7 5 -9 2 -5 -9 4 -11
2 -14 -9 -10 -8 3 -21 0 -29 -7 -8 -7 -15 -9 -15 -4 0 5 -7 -2 -16 -14 -8 -12
-19 -20 -24 -17 -4 2 -19 -4 -33 -15 -14 -11 -29 -20 -34 -20 -4 0 -14 -9 -21
-20 -7 -12 -18 -18 -24 -14 -7 5 -9 2 -5 -9 4 -11 2 -14 -7 -11 -15 6 -69 -39
-61 -49 3 -4 2 -5 -2 -2 -9 7 -34 -16 -27 -26 3 -5 2 -9 -3 -8 -20 3 -34 -2
-28 -11 3 -5 -1 -10 -9 -10 -9 0 -16 -7 -16 -15 0 -8 -3 -14 -8 -12 -4 1 -7
-1 -7 -5 0 -4 -10 -15 -23 -23 -12 -9 -20 -21 -17 -26 3 -5 -2 -6 -11 -2 -11
4 -15 3 -10 -5 3 -6 -1 -15 -9 -20 -9 -5 -17 -17 -19 -28 -2 -10 -12 -24 -24
-30 -12 -6 -19 -14 -15 -17 3 -4 1 -7 -5 -7 -13 0 -44 -59 -37 -71 3 -4 0 -11
-6 -15 -8 -5 -10 -2 -5 7 4 8 0 5 -8 -5 -9 -11 -16 -26 -16 -34 0 -7 -5 -10
-12 -6 -7 5 -9 2 -6 -8 4 -8 -2 -21 -12 -28 -10 -7 -17 -23 -15 -36 1 -15 -2
-21 -12 -17 -9 4 -11 0 -7 -11 3 -9 1 -16 -5 -16 -6 0 -10 -3 -9 -7 1 -5 -4
-19 -11 -32 -9 -16 -9 -21 -1 -16 8 5 8 1 -1 -13 -7 -12 -16 -19 -19 -17 -3 2
-5 -12 -5 -30 1 -19 -2 -32 -7 -29 -7 5 -12 -18 -9 -38 0 -5 -4 -8 -10 -8 -8
0 -7 -6 2 -17 10 -11 10 -14 1 -9 -8 5 -12 0 -12 -14 0 -14 -4 -19 -12 -14
-10 6 -10 5 -1 -7 7 -9 8 -20 3 -29 -5 -8 -6 -18 -4 -22 3 -4 0 -8 -7 -8 -9 0
-9 -3 0 -14 9 -10 9 -16 1 -21 -6 -4 -9 -13 -6 -21 3 -8 2 -14 -3 -14 -4 0 -7
-16 -6 -35 0 -19 -2 -35 -5 -35 -3 0 -5 -19 -3 -42 1 -23 -3 -49 -10 -57 -7
-8 -7 -12 -1 -8 7 4 11 -11 11 -43 0 -33 -4 -47 -11 -43 -6 4 -5 0 2 -9 7 -9
12 -20 11 -24 -5 -32 2 -74 13 -68 7 5 8 3 3 -7 -11 -17 -14 -50 -5 -44 6 4 9
-15 13 -97 1 -14 5 -24 9 -21 7 4 13 -28 9 -49 0 -5 3 -8 7 -8 4 0 9 -12 10
-27 1 -15 8 -30 15 -35 9 -6 8 -8 -3 -8 -12 0 -12 -2 -2 -9 7 -4 14 -18 15
-30 1 -12 6 -20 13 -17 7 3 9 -5 6 -21 -3 -17 -1 -24 6 -19 7 4 10 -1 7 -13
-2 -11 3 -25 11 -31 7 -7 12 -16 9 -20 -3 -5 2 -16 11 -24 8 -9 12 -16 8 -16
-4 0 1 -7 12 -16 10 -8 13 -12 5 -8 -8 4 -2 -9 13 -29 16 -20 24 -37 20 -37
-5 0 -1 -5 9 -11 9 -6 15 -14 12 -20 -4 -5 -1 -9 4 -9 6 0 11 -7 11 -16 0 -8
5 -12 10 -9 6 3 10 -1 10 -9 0 -9 3 -16 8 -16 4 0 13 -9 20 -21 11 -17 11 -20
0 -13 -7 4 -2 -4 12 -18 14 -13 28 -23 32 -21 5 2 8 -1 8 -7 0 -15 61 -90 72
-90 5 0 34 -25 64 -55 31 -30 60 -53 65 -50 5 4 9 -1 9 -9 0 -8 5 -18 12 -22
7 -5 9 -2 4 7 -4 8 -1 6 7 -3 8 -10 17 -15 20 -11 4 3 7 1 7 -5 0 -7 7 -12 16
-12 8 0 12 -4 9 -10 -6 -9 8 -14 28 -11 4 0 7 -3 7 -9 0 -5 7 -10 16 -10 8 0
13 -4 9 -9 -3 -5 11 -15 30 -21 19 -6 35 -16 35 -20 0 -5 7 -7 15 -4 8 4 15 1
15 -6 0 -6 4 -8 10 -5 5 3 10 1 10 -4 0 -6 9 -11 20 -11 11 0 20 -4 20 -10 0
-5 8 -10 18 -10 10 0 24 -6 31 -12 11 -10 12 -10 7 -1 -5 9 -2 11 8 7 9 -3 13
-11 9 -17 -3 -5 -1 -7 5 -3 6 3 14 1 17 -5 4 -5 13 -8 21 -5 7 3 16 1 20 -5 3
-6 12 -8 20 -5 7 3 16 1 19 -4 4 -6 15 -10 26 -10 13 0 18 -4 13 -12 -5 -7 -3
-8 7 -2 18 11 32 12 39 2 4 -4 23 -9 43 -10 20 -2 37 -5 37 -8 0 -5 51 -10
130 -13 19 -1 38 -6 42 -12 5 -7 8 -7 8 0 0 6 9 11 20 12 13 1 18 -2 14 -9 -5
-7 -2 -8 7 -2 21 13 39 14 39 1 0 -9 2 -9 8 -1 4 7 28 11 55 10 26 -1 47 2 47
7 0 4 10 3 21 -4 12 -6 19 -7 15 -1 -3 5 8 10 27 10 34 0 56 4 72 13 6 3 20 4
33 3 16 -1 21 3 18 13 -4 10 -2 11 10 5 16 -9 84 7 84 20 0 4 6 5 13 2 8 -3
19 2 26 10 7 8 21 12 33 8 12 -3 19 -1 16 4 -4 5 5 10 19 10 13 1 31 10 39 20
9 11 13 13 9 7 -3 -7 -1 -13 4 -13 6 0 11 4 11 9 0 7 47 29 65 30 3 0 15 10
27 20 11 11 24 18 29 16 4 -3 22 10 40 27 18 18 30 27 25 21 -5 -9 -2 -11 8
-7 9 3 13 11 9 17 -4 6 0 8 11 4 10 -4 15 -3 11 3 -6 9 1 12 22 9 4 0 10 7 13
16 3 9 10 17 15 17 6 0 23 14 40 32 16 17 32 30 35 28 2 -2 7 5 11 15 4 10 8
12 8 5 1 -6 7 -11 14 -10 6 2 11 -3 9 -9 -1 -7 5 -13 13 -13 8 0 19 -9 25 -20
6 -11 17 -20 24 -20 7 0 26 -13 42 -28 17 -16 38 -31 47 -35 9 -3 17 -11 17
-18 0 -6 6 -9 14 -6 8 3 17 -1 20 -10 4 -8 13 -13 21 -9 8 3 14 0 12 -7 -1 -7
6 -11 15 -11 10 1 15 -2 12 -7 -3 -5 2 -9 11 -9 9 0 13 -4 10 -10 -3 -6 1 -7
9 -4 9 3 18 0 21 -8 3 -8 15 -14 26 -15 12 -1 28 -10 36 -20 8 -10 11 -11 7
-3 -5 10 0 9 14 -4 12 -11 25 -16 29 -13 3 4 0 7 -7 7 -7 0 -11 3 -7 6 3 3 19
-3 35 -15 17 -11 40 -23 53 -25 13 -3 26 -5 29 -6 3 -2 8 -2 13 -1 4 0 7 -3 7
-9 0 -5 7 -6 17 -3 12 5 14 3 8 -8 -8 -12 -6 -12 8 0 13 10 17 10 17 1 0 -7 7
-10 15 -6 8 3 15 1 15 -4 0 -5 9 -7 20 -5 11 2 20 1 20 -3 0 -7 8 -9 65 -13
13 -1 22 -6 19 -11 -4 -6 3 -5 14 1 14 8 23 8 27 1 5 -8 12 -7 23 2 9 7 13 8
9 2 -4 -7 5 -11 24 -12 16 0 27 3 25 7 -3 4 1 8 9 8 8 0 12 -4 10 -8 -3 -4 2
-9 10 -13 8 -3 15 -1 15 5 0 6 4 8 8 5 18 -11 196 -5 208 7 4 4 13 2 20 -4 8
-7 14 -6 20 2 5 8 3 9 -6 4 -9 -5 -11 -4 -6 4 6 8 12 9 20 2 7 -6 15 -9 17 -7
5 6 57 18 82 19 11 1 15 7 12 16 -4 11 -3 11 9 2 9 -7 21 -9 28 -5 7 5 22 10
33 12 53 8 60 11 57 22 -1 6 2 9 7 5 6 -3 27 1 47 10 20 8 41 12 47 8 6 -3 7
-1 3 5 -4 7 3 14 19 18 14 3 25 11 25 17 0 6 3 7 7 4 3 -4 17 0 30 8 13 9 29
13 35 9 6 -4 8 -3 5 2 -3 6 3 16 15 23 15 9 18 10 13 0 -5 -8 -4 -10 3 -5 7 4
12 14 12 22 0 8 6 14 13 13 25 -3 38 1 32 11 -3 6 1 10 9 10 9 0 25 9 36 20
11 11 27 20 36 20 10 0 14 5 10 16 -3 8 -2 12 4 9 5 -3 17 3 27 15 10 11 23
20 30 20 7 0 12 6 10 13 -1 6 4 11 11 10 6 -2 12 2 12 8 0 5 5 7 10 4 6 -3 10
-1 10 5 0 15 25 40 40 40 7 0 10 7 6 15 -3 8 -1 15 4 15 6 0 19 9 30 20 11 11
18 20 15 20 -2 0 7 11 21 25 14 14 22 30 18 37 -4 6 -3 9 2 6 5 -3 15 0 22 8
7 8 9 14 5 14 -4 0 0 5 10 11 9 6 15 14 12 19 -3 4 2 11 11 14 8 3 12 10 9 16
-3 5 -1 10 5 10 7 0 10 7 7 14 -4 11 -1 13 10 9 11 -4 14 -2 9 5 -4 7 -2 12 5
12 8 0 8 4 -1 15 -11 13 -10 14 4 9 14 -6 21 5 17 29 0 4 4 7 10 7 5 0 8 4 4
9 -3 6 3 14 12 20 10 5 17 12 16 15 -3 13 10 46 19 46 6 0 8 6 5 14 -3 7 1 23
8 34 8 10 11 22 8 26 -3 3 0 6 7 6 7 0 10 3 7 6 -3 4 -2 16 4 27 8 14 8 18 -1
12 -8 -5 -7 0 2 14 7 12 16 21 21 21 4 0 5 4 2 10 -3 5 -1 18 5 29 7 14 7 22
-1 27 -9 5 -8 10 2 18 8 6 15 20 16 31 5 46 10 73 18 85 5 8 4 11 -2 7 -5 -3
-10 0 -10 8 0 8 4 12 9 8 6 -3 9 3 8 13 -1 11 -1 21 0 24 1 3 3 41 4 85 0 44
5 86 9 93 5 6 4 12 -1 12 -5 0 -8 10 -8 23 1 12 -2 30 -7 41 -7 14 -6 16 4 11
9 -6 10 -3 5 11 -5 10 -10 35 -11 54 -2 19 -4 35 -5 35 -1 0 -7 44 -12 92 -1
7 -4 10 -8 8 -4 -2 -7 12 -8 31 -1 19 -5 40 -9 47 -4 7 -9 23 -11 37 -2 13 -8
27 -13 31 -6 3 -9 12 -7 20 2 8 -2 13 -9 12 -7 -2 -10 4 -7 12 4 9 0 23 -7 32
-12 14 -12 16 1 8 11 -6 10 -3 -2 12 -10 11 -18 25 -18 32 0 7 -4 10 -9 6 -6
-3 -8 4 -6 15 2 11 -3 26 -11 34 -8 8 -14 19 -14 25 0 6 -4 11 -10 11 -5 0 -7
7 -4 15 4 10 0 15 -12 16 -11 0 -14 3 -7 6 10 3 10 7 0 18 -7 7 -15 11 -19 8
-4 -2 -5 3 -2 11 4 9 -1 18 -10 22 -9 3 -16 10 -16 15 0 13 -63 99 -73 99 -4
0 -5 5 -1 12 5 8 2 9 -10 5 -11 -4 -15 -3 -11 4 4 5 -2 18 -14 28 -11 10 -18
21 -14 25 3 3 1 6 -5 6 -13 0 -92 79 -92 92 0 5 -5 6 -10 3 -6 -3 -13 1 -16 9
-3 9 -12 16 -20 16 -8 0 -14 7 -14 16 0 8 -4 12 -10 9 -6 -3 -10 -1 -10 5 0 6
-4 8 -10 5 -5 -3 -10 1 -10 9 0 14 -18 21 -42 17 -4 0 -4 7 -1 16 4 10 2 14
-5 9 -6 -3 -21 4 -33 16 -12 13 -18 16 -14 8 5 -8 -3 -5 -17 8 -13 12 -30 22
-36 22 -7 0 -12 5 -12 11 0 8 -5 7 -15 -1 -13 -11 -14 -10 -9 5 5 12 4 16 -3
12 -6 -4 -16 0 -23 9 -7 8 -19 13 -27 10 -7 -3 -13 -1 -13 4 0 6 -7 10 -15 10
-8 0 -15 4 -15 8 0 5 -6 9 -12 9 -22 1 -43 8 -49 16 -3 4 -16 9 -27 10 -12 1
-22 5 -22 10 0 4 -4 6 -8 3 -5 -3 -20 1 -35 9 -15 8 -27 10 -27 6 0 -4 -7 -8
-15 -8 -8 0 -12 4 -9 9 5 7 -11 12 -19 6 -2 -2 -10 2 -18 8 -8 5 -29 10 -46
10 -18 -1 -33 2 -33 6 0 4 -9 5 -20 3 -11 -2 -22 1 -25 6 -4 5 -11 7 -16 3 -5
-3 -6 -10 -3 -16 4 -7 2 -8 -4 -4 -7 4 -12 13 -12 19 0 9 -29 12 -100 12 -62
-1 -100 3 -100 10 0 5 -4 5 -8 -2 -4 -7 -27 -11 -55 -10 -34 1 -46 -1 -42 -10
3 -10 0 -10 -16 0 -13 8 -22 9 -27 2 -4 -5 -25 -11 -47 -12 -66 -2 -67 -2 -59
-15 6 -10 4 -10 -8 0 -10 8 -19 9 -22 4 -3 -6 -23 -13 -43 -16 -44 -7 -76 -13
-83 -16 -3 -1 -9 -2 -13 -1 -5 1 -5 -4 -1 -10 5 -8 -1 -10 -19 -7 -15 3 -24 1
-21 -3 3 -5 -1 -9 -10 -9 -8 0 -16 -4 -18 -9 -1 -6 -16 -12 -33 -15 -16 -2
-32 -5 -35 -6 -3 -1 -9 -2 -14 -1 -5 1 -5 -6 -2 -16 4 -9 4 -14 0 -10 -4 4
-14 1 -22 -6 -13 -10 -14 -9 -7 2 5 8 -6 5 -23 -8 -18 -12 -32 -19 -32 -14 0
4 -4 3 -8 -2 -9 -13 -92 -67 -92 -60 0 3 -8 -3 -18 -12 -11 -10 -16 -22 -13
-28 2 -5 -4 -3 -14 5 -10 8 -16 10 -13 4 4 -5 -5 -19 -20 -30 -15 -10 -36 -28
-48 -39 -24 -23 -69 -51 -61 -38 3 4 -1 14 -9 21 -8 7 -14 10 -14 6 0 -4 -9 5
-21 20 -11 14 -27 26 -35 26 -8 0 -14 7 -14 16 0 8 -4 13 -8 10 -5 -3 -15 4
-22 15 -8 10 -23 19 -33 19 -10 0 -15 5 -12 10 3 6 -1 10 -9 10 -9 0 -16 5
-16 10 0 6 -7 10 -15 10 -8 0 -15 5 -15 11 0 5 -4 8 -9 5 -5 -3 -14 1 -21 9
-7 8 -19 15 -26 15 -8 0 -14 5 -14 11 0 5 -4 7 -10 4 -5 -3 -10 -1 -10 6 0 6
-8 9 -20 6 -11 -3 -18 -1 -14 4 3 5 -2 9 -10 9 -9 0 -16 5 -16 12 0 6 -3 8 -7
5 -3 -4 -15 1 -26 10 -15 13 -18 14 -12 3 6 -12 5 -13 -6 -2 -7 6 -21 12 -31
12 -10 0 -18 5 -18 11 0 8 -6 7 -17 -2 -9 -8 -14 -9 -10 -3 3 6 -5 16 -19 23
-20 9 -24 9 -19 -1 4 -7 0 -5 -8 5 -15 18 -32 24 -22 7 3 -6 -1 -7 -9 -4 -9 3
-16 10 -16 14 0 5 -9 7 -20 5 -11 -2 -20 2 -20 8 0 7 -4 6 -10 -3 -8 -13 -10
-12 -10 4 0 16 -2 16 -16 5 -9 -7 -18 -9 -22 -3 -8 10 -18 13 -67 17 -19 1
-35 6 -35 11 0 6 -5 5 -12 -2 -14 -14 -32 -16 -24 -4 7 11 -234 12 -255 1 -9
-4 -20 -4 -26 2 -5 5 -12 7 -16 3z m1493 -938 c0 -2 -7 -7 -16 -10 -8 -3 -12
-2 -9 4 6 10 25 14 25 6z"/>
<path d="M390 3359 c0 -5 5 -7 10 -4 6 3 10 8 10 11 0 2 -4 4 -10 4 -5 0 -10
-5 -10 -11z"/>
</g>
</svg>
